<svg data-v-423bf9ae="" xmlns="http://www.w3.org/2000/svg" viewBox="0 0 303 90" class="iconLeft"><!----><!----><!----><g data-v-423bf9ae="" id="96673248-5685-4ea0-82b1-86b8c415b7f3" fill="white" transform="matrix(6.036216979508284,0,0,6.036216979508284,100.88531663025424,-12.645872351946814)"><path d="M1.82 14.35L1.82 9.53L6.54 9.53L6.54 9.25L1.82 9.25L1.82 4.86L6.73 4.86L6.73 4.58L1.51 4.58L1.51 14.35ZM10.99 14.52C12.84 14.52 13.93 13.26 13.93 10.81C13.93 8.36 12.84 7.10 10.99 7.10C9.14 7.10 8.05 8.36 8.05 10.81C8.05 13.26 9.14 14.52 10.99 14.52ZM10.99 14.25C9.31 14.25 8.37 13.05 8.37 11.14L8.37 10.47C8.37 8.57 9.31 7.36 10.99 7.36C12.67 7.36 13.61 8.57 13.61 10.47L13.61 11.14C13.61 13.05 12.67 14.25 10.99 14.25ZM18.55 14.52C20.40 14.52 21.49 13.26 21.49 10.81C21.49 8.36 20.40 7.10 18.55 7.10C16.70 7.10 15.61 8.36 15.61 10.81C15.61 13.26 16.70 14.52 18.55 14.52ZM18.55 14.25C16.87 14.25 15.93 13.05 15.93 11.14L15.93 10.47C15.93 8.57 16.87 7.36 18.55 7.36C20.23 7.36 21.17 8.57 21.17 10.47L21.17 11.14C21.17 13.05 20.23 14.25 18.55 14.25ZM25.96 14.35L25.96 14.08L24.37 14.08L24.37 7.53L26.07 7.53L26.07 7.27L24.37 7.27L24.37 5.25L24.08 5.25L24.08 6.92C24.08 7.17 24.01 7.27 23.76 7.27L22.75 7.27L22.75 7.53L24.08 7.53L24.08 13.94C24.08 14.22 24.21 14.35 24.49 14.35ZM30.38 14.52C32.23 14.52 33.32 13.26 33.32 10.81C33.32 8.36 32.23 7.10 30.38 7.10C28.53 7.10 27.44 8.36 27.44 10.81C27.44 13.26 28.53 14.52 30.38 14.52ZM30.38 14.25C28.70 14.25 27.76 13.05 27.76 11.14L27.76 10.47C27.76 8.57 28.70 7.36 30.38 7.36C32.06 7.36 33.00 8.57 33.00 10.47L33.00 11.14C33.00 13.05 32.06 14.25 30.38 14.25Z"></path></g><!----><g data-v-423bf9ae="" id="016c4314-7648-4888-87a1-c2ac4f8c8e09" transform="matrix(2.8125,0,0,2.8125,0,0)" stroke="none" fill="white"><circle cx="16" cy="16.021" r="8.066"></circle><path d="M32 0H0v32h32V0zM16 26.086c-5.551 0-10.066-4.516-10.066-10.065 0-5.55 4.516-10.066 10.066-10.066 5.55 0 10.065 4.516 10.065 10.066.001 5.55-4.515 10.065-10.065 10.065z"></path></g><!----></svg>