<svg data-v-fde0c5aa="" xmlns="http://www.w3.org/2000/svg" viewBox="0 0 300 300" class="font"><!----><defs data-v-fde0c5aa=""><!----></defs><rect data-v-fde0c5aa="" fill="#FCF2F7" x="0" y="0" width="300px" height="300px" class="logo-background-square"></rect><defs data-v-fde0c5aa=""><linearGradient data-v-fde0c5aa="" gradientTransform="rotate(25)" id="11fe72b1-a2fd-4856-b1df-bf3ee53544fb" x1="0%" y1="0%" x2="100%" y2="0%"><stop data-v-fde0c5aa="" offset="0%" stop-color="#D418EA" stop-opacity="1"></stop><stop data-v-fde0c5aa="" offset="100%" stop-color="#ECD062" stop-opacity="1"></stop></linearGradient></defs><g data-v-fde0c5aa="" id="3483e02f-b40c-4690-bffa-5b1026f2598c" fill="url(#11fe72b1-a2fd-4856-b1df-bf3ee53544fb)" transform="matrix(6.916064246890185,0,0,6.916064246890185,29.556743053152548,83.95158512306418)"><path d="M1.82 14.35L1.82 9.53L6.54 9.53L6.54 9.25L1.82 9.25L1.82 4.86L6.73 4.86L6.73 4.58L1.51 4.58L1.51 14.35ZM10.99 14.52C12.84 14.52 13.93 13.26 13.93 10.81C13.93 8.36 12.84 7.10 10.99 7.10C9.14 7.10 8.05 8.36 8.05 10.81C8.05 13.26 9.14 14.52 10.99 14.52ZM10.99 14.25C9.31 14.25 8.37 13.05 8.37 11.14L8.37 10.47C8.37 8.57 9.31 7.36 10.99 7.36C12.67 7.36 13.61 8.57 13.61 10.47L13.61 11.14C13.61 13.05 12.67 14.25 10.99 14.25ZM18.55 14.52C20.40 14.52 21.49 13.26 21.49 10.81C21.49 8.36 20.40 7.10 18.55 7.10C16.70 7.10 15.61 8.36 15.61 10.81C15.61 13.26 16.70 14.52 18.55 14.52ZM18.55 14.25C16.87 14.25 15.93 13.05 15.93 11.14L15.93 10.47C15.93 8.57 16.87 7.36 18.55 7.36C20.23 7.36 21.17 8.57 21.17 10.47L21.17 11.14C21.17 13.05 20.23 14.25 18.55 14.25ZM25.96 14.35L25.96 14.08L24.37 14.08L24.37 7.53L26.07 7.53L26.07 7.27L24.37 7.27L24.37 5.25L24.08 5.25L24.08 6.92C24.08 7.17 24.01 7.27 23.76 7.27L22.75 7.27L22.75 7.53L24.08 7.53L24.08 13.94C24.08 14.22 24.21 14.35 24.49 14.35ZM30.38 14.52C32.23 14.52 33.32 13.26 33.32 10.81C33.32 8.36 32.23 7.10 30.38 7.10C28.53 7.10 27.44 8.36 27.44 10.81C27.44 13.26 28.53 14.52 30.38 14.52ZM30.38 14.25C28.70 14.25 27.76 13.05 27.76 11.14L27.76 10.47C27.76 8.57 28.70 7.36 30.38 7.36C32.06 7.36 33.00 8.57 33.00 10.47L33.00 11.14C33.00 13.05 32.06 14.25 30.38 14.25Z"></path></g><!----><!----></svg>